solid Exported from Blender-3.6.5
facet normal 0.123715 -0.028784 0.991900
outer loop
vertex 0.057592 -1.198736 0.021406
vertex 0.092639 -1.158202 0.018211
vertex 0.078866 -1.066394 0.022593
endloop
endfacet
facet normal 0.095769 -0.024321 0.995106
outer loop
vertex 0.057592 -1.198736 0.021406
vertex 0.078866 -1.066394 0.022593
vertex 0.043819 -1.073676 0.025788
endloop
endfacet
facet normal 0.815254 -0.166700 0.554592
outer loop
vertex 0.038411 -1.175092 0.056710
vertex 0.044686 -1.272489 0.018209
vertex 0.057592 -1.198736 0.021406
endloop
endfacet
facet normal 0.173966 -0.073010 0.982041
outer loop
vertex 0.057592 -1.198736 0.021406
vertex 0.044686 -1.272489 0.018209
vertex 0.092639 -1.158202 0.018211
endloop
endfacet
facet normal 0.902438 -0.162686 -0.398921
outer loop
vertex -0.023229 -0.882744 0.073559
vertex -0.039353 -0.862180 0.028696
vertex -0.029067 -0.809017 0.030285
endloop
endfacet
facet normal 0.916732 -0.145736 -0.371971
outer loop
vertex -0.023229 -0.882744 0.073559
vertex -0.029067 -0.809017 0.030285
vertex -0.013636 -0.832299 0.077437
endloop
endfacet
facet normal 0.815255 -0.166699 0.554591
outer loop
vertex 0.038411 -1.175092 0.056710
vertex 0.000000 -1.182870 0.110836
vertex 0.044686 -1.272489 0.018209
endloop
endfacet
facet normal 0.817405 -0.181076 0.546864
outer loop
vertex 0.073852 -1.134081 0.054279
vertex 0.092639 -1.158202 0.018211
vertex 0.087753 -1.029279 0.068202
endloop
endfacet
facet normal 0.252748 -0.161887 0.953893
outer loop
vertex 0.073852 -1.134081 0.054279
vertex 0.057820 -0.996482 0.081879
vertex 0.038411 -1.175092 0.056710
endloop
endfacet
facet normal 0.815252 -0.166743 0.554582
outer loop
vertex 0.057820 -0.996482 0.081879
vertex 0.000000 -1.182870 0.110836
vertex 0.038411 -1.175092 0.056710
endloop
endfacet
facet normal 0.714108 -0.298424 0.633240
outer loop
vertex 0.000000 -1.182870 0.110836
vertex 0.023122 -1.324091 0.018209
vertex 0.044686 -1.272489 0.018209
endloop
endfacet
facet normal 0.258910 -0.160872 0.952410
outer loop
vertex 0.087753 -1.029279 0.068202
vertex 0.057820 -0.996482 0.081879
vertex 0.073852 -1.134081 0.054279
endloop
endfacet
facet normal 0.874557 -0.146148 0.462374
outer loop
vertex 0.087753 -1.029279 0.068202
vertex 0.092639 -1.158202 0.018211
vertex 0.119762 -0.992258 0.019361
endloop
endfacet
facet normal 0.227634 0.080272 0.970433
outer loop
vertex 0.057820 -0.996482 0.081879
vertex 0.031426 -0.898405 0.079958
vertex 0.000000 -0.906186 0.087973
endloop
endfacet
facet normal 0.227513 0.080192 0.970467
outer loop
vertex 0.057820 -0.996482 0.081879
vertex 0.000000 -0.906186 0.087973
vertex 0.000000 -1.182870 0.110836
endloop
endfacet
facet normal -0.002078 -0.548689 0.836024
outer loop
vertex 0.023122 -1.324091 0.018209
vertex 0.000000 -1.182870 0.110836
vertex 0.000000 -1.274814 0.050492
endloop
endfacet
facet normal 0.438592 0.025675 0.898320
outer loop
vertex 0.087753 -1.029279 0.068202
vertex 0.084386 -0.885306 0.065731
vertex 0.057820 -0.996482 0.081879
endloop
endfacet
facet normal 0.825824 0.028981 0.563183
outer loop
vertex 0.087753 -1.029279 0.068202
vertex 0.119762 -0.992258 0.019361
vertex 0.084386 -0.885306 0.065731
endloop
endfacet
facet normal 0.338651 0.251799 0.906594
outer loop
vertex 0.084386 -0.885306 0.065731
vertex 0.023167 -0.804649 0.066197
vertex 0.013636 -0.832299 0.077437
endloop
endfacet
facet normal 0.234961 0.100099 0.966837
outer loop
vertex 0.084386 -0.885306 0.065731
vertex 0.013636 -0.832299 0.077437
vertex 0.031426 -0.898405 0.079958
endloop
endfacet
facet normal 0.570542 -0.245695 0.783656
outer loop
vertex 0.023122 -1.324091 0.018209
vertex 0.000000 -1.274814 0.050492
vertex 0.000000 -1.379284 0.017739
endloop
endfacet
facet normal 0.807337 0.011245 0.589984
outer loop
vertex 0.084386 -0.885306 0.065731
vertex 0.119762 -0.992258 0.019361
vertex 0.117074 -0.755590 0.018529
endloop
endfacet
facet normal 0.332742 0.247295 0.910015
outer loop
vertex 0.023167 -0.804649 0.066197
vertex 0.084386 -0.885306 0.065731
vertex 0.117074 -0.755590 0.018529
endloop
endfacet
facet normal 0.344949 0.319026 0.882741
outer loop
vertex 0.024997 -0.748604 0.051985
vertex 0.025100 -0.776045 0.061862
vertex 0.117074 -0.755590 0.018529
endloop
endfacet
facet normal 0.345047 0.316959 0.883448
outer loop
vertex 0.017816 -0.706337 0.039625
vertex 0.024997 -0.748604 0.051985
vertex 0.117074 -0.755590 0.018529
endloop
endfacet
facet normal 0.288076 0.177492 0.941015
outer loop
vertex 0.017816 -0.706337 0.039625
vertex 0.117074 -0.755590 0.018529
vertex 0.012709 -0.652801 0.031091
endloop
endfacet
facet normal 0.637782 0.335330 0.693388
outer loop
vertex 0.004717 -0.608901 0.017211
vertex 0.000000 -0.601063 0.017760
vertex 0.012709 -0.652801 0.031091
endloop
endfacet
facet normal 0.437424 0.342515 0.831471
outer loop
vertex 0.012709 -0.652801 0.031091
vertex 0.117074 -0.755590 0.018529
vertex 0.004717 -0.608901 0.017211
endloop
endfacet
facet normal -0.412650 -0.308367 0.857105
outer loop
vertex 0.117074 -0.755590 0.018529
vertex 0.000000 -0.601063 0.017760
vertex 0.004717 -0.608901 0.017211
endloop
endfacet
facet normal 0.898055 0.083774 0.431831
outer loop
vertex 0.038411 -1.175092 0.056710
vertex 0.057592 -1.198736 0.021406
vertex 0.043819 -1.073676 0.025788
endloop
endfacet
facet normal 0.861446 0.105525 0.496765
outer loop
vertex 0.038411 -1.175092 0.056710
vertex 0.043819 -1.073676 0.025788
vertex 0.024637 -1.083284 0.061092
endloop
endfacet
facet normal -0.104865 0.031711 -0.993981
outer loop
vertex 0.073852 -1.134081 0.054279
vertex 0.038411 -1.175092 0.056710
vertex 0.024637 -1.083284 0.061092
endloop
endfacet
facet normal -0.079109 0.056834 -0.995245
outer loop
vertex 0.073852 -1.134081 0.054279
vertex 0.024637 -1.083284 0.061092
vertex 0.060079 -1.076516 0.058661
endloop
endfacet
facet normal -0.917161 -0.192900 -0.348721
outer loop
vertex 0.092639 -1.158202 0.018211
vertex 0.073852 -1.134081 0.054279
vertex 0.060079 -1.076516 0.058661
endloop
endfacet
facet normal -0.869112 -0.107341 -0.482827
outer loop
vertex 0.092639 -1.158202 0.018211
vertex 0.060079 -1.076516 0.058661
vertex 0.078866 -1.066394 0.022593
endloop
endfacet
facet normal 0.223333 0.097087 0.969895
outer loop
vertex 0.000000 -0.906186 0.087973
vertex 0.031426 -0.898405 0.079958
vertex 0.013636 -0.832299 0.077437
endloop
endfacet
facet normal 0.239251 0.083338 0.967375
outer loop
vertex 0.031426 -0.898405 0.079958
vertex 0.057820 -0.996482 0.081879
vertex 0.084386 -0.885306 0.065731
endloop
endfacet
facet normal -0.949694 0.251512 -0.186608
outer loop
vertex 0.013636 -0.832299 0.077437
vertex 0.023167 -0.804649 0.066197
vertex 0.029067 -0.809017 0.030285
endloop
endfacet
facet normal 0.403402 0.110417 0.908336
outer loop
vertex 0.025100 -0.776045 0.061862
vertex 0.023167 -0.804649 0.066197
vertex 0.117074 -0.755590 0.018529
endloop
endfacet
facet normal 0.289576 0.082536 0.953590
outer loop
vertex 0.000000 -0.836261 0.081921
vertex 0.000000 -0.906186 0.087973
vertex 0.013636 -0.832299 0.077437
endloop
endfacet
facet normal -0.149013 0.038685 0.988078
outer loop
vertex 0.000000 -0.601063 0.017760
vertex 0.000000 -0.806604 0.025807
vertex 0.029067 -0.809017 0.030285
endloop
endfacet
facet normal -0.985117 0.041260 -0.166858
outer loop
vertex 0.029067 -0.809017 0.030285
vertex 0.023167 -0.804649 0.066197
vertex 0.025100 -0.776045 0.061862
endloop
endfacet
facet normal -0.995483 -0.035432 -0.088079
outer loop
vertex 0.029067 -0.809017 0.030285
vertex 0.025100 -0.776045 0.061862
vertex 0.024997 -0.748604 0.051985
endloop
endfacet
facet normal -0.877381 -0.094302 0.470436
outer loop
vertex 0.012709 -0.652801 0.031091
vertex 0.000000 -0.601063 0.017760
vertex 0.029067 -0.809017 0.030285
endloop
endfacet
facet normal -0.980533 -0.121474 0.154267
outer loop
vertex 0.029067 -0.809017 0.030285
vertex 0.024997 -0.748604 0.051985
vertex 0.017816 -0.706337 0.039625
endloop
endfacet
facet normal -0.993019 -0.103696 -0.056220
outer loop
vertex 0.029067 -0.809017 0.030285
vertex 0.017816 -0.706337 0.039625
vertex 0.012709 -0.652801 0.031091
endloop
endfacet
facet normal -0.095769 -0.024321 0.995106
outer loop
vertex -0.057592 -1.198736 0.021406
vertex -0.043819 -1.073676 0.025788
vertex -0.078866 -1.066394 0.022593
endloop
endfacet
facet normal -0.123715 -0.028784 0.991900
outer loop
vertex -0.057592 -1.198736 0.021406
vertex -0.078866 -1.066394 0.022593
vertex -0.092639 -1.158202 0.018211
endloop
endfacet
facet normal -0.815254 -0.166700 0.554592
outer loop
vertex -0.038411 -1.175092 0.056710
vertex -0.057592 -1.198736 0.021406
vertex -0.044686 -1.272489 0.018209
endloop
endfacet
facet normal -0.173966 -0.073010 0.982041
outer loop
vertex -0.057592 -1.198736 0.021406
vertex -0.092639 -1.158202 0.018211
vertex -0.044686 -1.272489 0.018209
endloop
endfacet
facet normal 0.072654 0.000403 0.997357
outer loop
vertex -0.039353 -0.862180 0.028696
vertex 0.000362 -0.861587 0.025803
vertex 0.000000 -0.806604 0.025807
endloop
endfacet
facet normal 0.156841 -0.059810 0.985811
outer loop
vertex -0.039353 -0.862180 0.028696
vertex 0.000000 -0.806604 0.025807
vertex -0.029067 -0.809017 0.030285
endloop
endfacet
facet normal -0.815255 -0.166699 0.554591
outer loop
vertex -0.038411 -1.175092 0.056710
vertex -0.044686 -1.272489 0.018209
vertex 0.000000 -1.182870 0.110836
endloop
endfacet
facet normal -0.817405 -0.181076 0.546864
outer loop
vertex -0.073852 -1.134081 0.054279
vertex -0.087753 -1.029279 0.068202
vertex -0.092639 -1.158202 0.018211
endloop
endfacet
facet normal -0.252748 -0.161887 0.953893
outer loop
vertex -0.073852 -1.134081 0.054279
vertex -0.038411 -1.175092 0.056710
vertex -0.057820 -0.996482 0.081879
endloop
endfacet
facet normal -0.815252 -0.166743 0.554582
outer loop
vertex -0.057820 -0.996482 0.081879
vertex -0.038411 -1.175092 0.056710
vertex 0.000000 -1.182870 0.110836
endloop
endfacet
facet normal -0.714108 -0.298424 0.633240
outer loop
vertex 0.000000 -1.182870 0.110836
vertex -0.044686 -1.272489 0.018209
vertex -0.023122 -1.324091 0.018209
endloop
endfacet
facet normal -0.258910 -0.160872 0.952410
outer loop
vertex -0.087753 -1.029279 0.068202
vertex -0.073852 -1.134081 0.054279
vertex -0.057820 -0.996482 0.081879
endloop
endfacet
facet normal -0.874557 -0.146148 0.462374
outer loop
vertex -0.087753 -1.029279 0.068202
vertex -0.119762 -0.992258 0.019361
vertex -0.092639 -1.158202 0.018211
endloop
endfacet
facet normal -0.227513 0.080192 0.970467
outer loop
vertex -0.057820 -0.996482 0.081879
vertex 0.000000 -1.182870 0.110836
vertex 0.000000 -0.906186 0.087973
endloop
endfacet
facet normal -0.227634 0.080272 0.970433
outer loop
vertex -0.057820 -0.996482 0.081879
vertex 0.000000 -0.906186 0.087973
vertex -0.031426 -0.898405 0.079958
endloop
endfacet
facet normal 0.002078 -0.548689 0.836024
outer loop
vertex -0.023122 -1.324091 0.018209
vertex 0.000000 -1.274814 0.050492
vertex 0.000000 -1.182870 0.110836
endloop
endfacet
facet normal -0.438592 0.025675 0.898320
outer loop
vertex -0.087753 -1.029279 0.068202
vertex -0.057820 -0.996482 0.081879
vertex -0.084386 -0.885306 0.065731
endloop
endfacet
facet normal -0.825824 0.028981 0.563183
outer loop
vertex -0.087753 -1.029279 0.068202
vertex -0.084386 -0.885306 0.065731
vertex -0.119762 -0.992258 0.019361
endloop
endfacet
facet normal -0.234961 0.100099 0.966837
outer loop
vertex -0.084386 -0.885306 0.065731
vertex -0.031426 -0.898405 0.079958
vertex -0.013636 -0.832299 0.077437
endloop
endfacet
facet normal -0.338651 0.251799 0.906594
outer loop
vertex -0.084386 -0.885306 0.065731
vertex -0.013636 -0.832299 0.077437
vertex -0.023167 -0.804649 0.066197
endloop
endfacet
facet normal -0.570542 -0.245695 0.783656
outer loop
vertex -0.023122 -1.324091 0.018209
vertex 0.000000 -1.379284 0.017739
vertex 0.000000 -1.274814 0.050492
endloop
endfacet
facet normal -0.807337 0.011245 0.589984
outer loop
vertex -0.084386 -0.885306 0.065731
vertex -0.117074 -0.755590 0.018529
vertex -0.119762 -0.992258 0.019361
endloop
endfacet
facet normal -0.332742 0.247295 0.910015
outer loop
vertex -0.117074 -0.755590 0.018529
vertex -0.084386 -0.885306 0.065731
vertex -0.023167 -0.804649 0.066197
endloop
endfacet
facet normal -0.344949 0.319027 0.882741
outer loop
vertex -0.117074 -0.755590 0.018529
vertex -0.025100 -0.776045 0.061862
vertex -0.025132 -0.749386 0.052215
endloop
endfacet
facet normal -0.345061 0.316997 0.883428
outer loop
vertex -0.117074 -0.755590 0.018529
vertex -0.025132 -0.749386 0.052215
vertex -0.017816 -0.706337 0.039625
endloop
endfacet
facet normal 0.669069 -0.504191 0.546021
outer loop
vertex -0.004777 -0.607570 0.017605
vertex 0.000000 -0.601063 0.017760
vertex -0.117074 -0.755590 0.018529
endloop
endfacet
facet normal -0.423060 0.326237 0.845334
outer loop
vertex -0.004777 -0.607570 0.017605
vertex -0.117074 -0.755590 0.018529
vertex -0.012709 -0.652801 0.031091
endloop
endfacet
facet normal -0.471809 0.326891 0.818864
outer loop
vertex -0.012709 -0.652801 0.031091
vertex 0.000000 -0.601063 0.017760
vertex -0.004777 -0.607570 0.017605
endloop
endfacet
facet normal -0.861446 0.105525 0.496765
outer loop
vertex -0.038411 -1.175092 0.056710
vertex -0.024637 -1.083284 0.061092
vertex -0.043819 -1.073676 0.025788
endloop
endfacet
facet normal -0.898055 0.083774 0.431831
outer loop
vertex -0.038411 -1.175092 0.056710
vertex -0.043819 -1.073676 0.025788
vertex -0.057592 -1.198736 0.021406
endloop
endfacet
facet normal 0.079109 0.056834 -0.995245
outer loop
vertex -0.073852 -1.134081 0.054279
vertex -0.060079 -1.076516 0.058661
vertex -0.024637 -1.083284 0.061092
endloop
endfacet
facet normal 0.104865 0.031711 -0.993981
outer loop
vertex -0.073852 -1.134081 0.054279
vertex -0.024637 -1.083284 0.061092
vertex -0.038411 -1.175092 0.056710
endloop
endfacet
facet normal 0.869112 -0.107341 -0.482827
outer loop
vertex -0.092639 -1.158202 0.018211
vertex -0.078866 -1.066394 0.022593
vertex -0.060079 -1.076516 0.058661
endloop
endfacet
facet normal 0.917161 -0.192900 -0.348721
outer loop
vertex -0.092639 -1.158202 0.018211
vertex -0.060079 -1.076516 0.058661
vertex -0.073852 -1.134081 0.054279
endloop
endfacet
facet normal -0.223333 0.097087 0.969895
outer loop
vertex 0.000000 -0.906186 0.087973
vertex -0.013636 -0.832299 0.077437
vertex -0.031426 -0.898405 0.079958
endloop
endfacet
facet normal -0.239251 0.083338 0.967375
outer loop
vertex -0.031426 -0.898405 0.079958
vertex -0.084386 -0.885306 0.065731
vertex -0.057820 -0.996482 0.081879
endloop
endfacet
facet normal 0.949694 0.251512 -0.186608
outer loop
vertex -0.013636 -0.832299 0.077437
vertex -0.029067 -0.809017 0.030285
vertex -0.023167 -0.804649 0.066197
endloop
endfacet
facet normal -0.332636 0.081618 -0.939517
outer loop
vertex 0.000204 -0.886937 0.077446
vertex 0.000000 -0.836261 0.081921
vertex 0.013636 -0.832299 0.077437
endloop
endfacet
facet normal -0.182562 0.044715 -0.982177
outer loop
vertex 0.000204 -0.886937 0.077446
vertex 0.013636 -0.832299 0.077437
vertex 0.023996 -0.882001 0.073249
endloop
endfacet
facet normal -0.403402 0.110417 0.908336
outer loop
vertex -0.025100 -0.776045 0.061862
vertex -0.117074 -0.755590 0.018529
vertex -0.023167 -0.804649 0.066197
endloop
endfacet
facet normal -0.289576 0.082536 0.953590
outer loop
vertex 0.000000 -0.836261 0.081921
vertex -0.013636 -0.832299 0.077437
vertex 0.000000 -0.906186 0.087973
endloop
endfacet
facet normal 0.149013 0.038685 0.988078
outer loop
vertex -0.029067 -0.809017 0.030285
vertex 0.000000 -0.806604 0.025807
vertex 0.000000 -0.601063 0.017760
endloop
endfacet
facet normal 0.947959 0.109360 0.299023
outer loop
vertex -0.025132 -0.749386 0.052215
vertex -0.025100 -0.776045 0.061862
vertex -0.023167 -0.804649 0.066197
endloop
endfacet
facet normal 0.877381 -0.094303 0.470436
outer loop
vertex -0.029067 -0.809017 0.030285
vertex 0.000000 -0.601063 0.017760
vertex -0.012709 -0.652801 0.031091
endloop
endfacet
facet normal 0.182593 0.247259 0.951590
outer loop
vertex -0.017816 -0.706337 0.039625
vertex -0.025132 -0.749386 0.052215
vertex -0.023167 -0.804649 0.066197
endloop
endfacet
facet normal 0.993019 -0.103696 -0.056220
outer loop
vertex -0.029067 -0.809017 0.030285
vertex -0.012709 -0.652801 0.031091
vertex -0.017816 -0.706337 0.039625
endloop
endfacet
facet normal 0.984156 -0.094173 -0.150228
outer loop
vertex -0.023167 -0.804649 0.066197
vertex -0.029067 -0.809017 0.030285
vertex -0.017816 -0.706337 0.039625
endloop
endfacet
facet normal 0.922332 -0.386397 0.000087
outer loop
vertex 0.023122 -1.324091 0.018209
vertex 0.000000 -1.379284 0.017739
vertex 0.000000 -1.379286 0.007739
endloop
endfacet
facet normal 0.922332 -0.386397 0.000100
outer loop
vertex 0.023122 -1.324091 0.018209
vertex 0.000000 -1.379286 0.007739
vertex 0.023122 -1.324093 0.008209
endloop
endfacet
facet normal -0.669069 0.504191 -0.546021
outer loop
vertex -0.004777 -0.607570 0.017605
vertex -0.117074 -0.755590 0.018529
vertex 0.000000 -0.601063 0.017760
endloop
endfacet
facet normal 0.621939 0.557700 0.549694
outer loop
vertex -0.117074 -0.755590 0.018529
vertex -0.117186 -0.745609 0.008530
vertex -0.273235 -0.573203 0.010171
endloop
endfacet
facet normal 0.621941 0.557702 0.549688
outer loop
vertex -0.117074 -0.755590 0.018529
vertex -0.273235 -0.573203 0.010171
vertex -0.273123 -0.583184 0.020170
endloop
endfacet
facet normal -0.806086 0.591798 -0.000138
outer loop
vertex -0.004777 -0.607570 0.017605
vertex 0.000000 -0.601063 0.017760
vertex 0.000000 -0.601066 0.007760
endloop
endfacet
facet normal -0.653048 0.532316 0.538672
outer loop
vertex 0.000000 -0.601066 0.007760
vertex -0.117186 -0.745609 0.008530
vertex -0.117074 -0.755590 0.018529
endloop
endfacet
facet normal -0.796573 0.604407 0.012808
outer loop
vertex -0.004777 -0.607570 0.017605
vertex 0.000000 -0.601066 0.007760
vertex -0.117074 -0.755590 0.018529
endloop
endfacet
facet normal 0.466914 -0.385233 0.795982
outer loop
vertex 0.024997 -0.748604 0.051985
vertex 0.029309 -0.748607 0.049454
vertex 0.070805 -0.552525 0.120011
endloop
endfacet
facet normal 0.466910 -0.385232 0.795985
outer loop
vertex 0.024997 -0.748604 0.051985
vertex 0.070805 -0.552525 0.120011
vertex 0.066493 -0.552522 0.122542
endloop
endfacet
facet normal -0.506942 0.000661 0.861980
outer loop
vertex -0.066469 -0.481737 0.122502
vertex -0.070779 -0.481737 0.119967
vertex -0.070803 -0.552522 0.120007
endloop
endfacet
facet normal -0.506945 0.000661 0.861978
outer loop
vertex -0.066469 -0.481737 0.122502
vertex -0.070803 -0.552522 0.120007
vertex -0.066493 -0.552522 0.122542
endloop
endfacet
facet normal -0.998549 0.052696 0.011113
outer loop
vertex -0.299733 -0.611325 0.019813
vertex -0.299845 -0.611344 0.009814
vertex -0.302298 -0.658145 0.011301
endloop
endfacet
facet normal -0.998549 0.052695 0.011114
outer loop
vertex -0.299733 -0.611325 0.019813
vertex -0.302298 -0.658145 0.011301
vertex -0.302186 -0.658126 0.021300
endloop
endfacet
facet normal -0.712637 0.492500 0.499593
outer loop
vertex -0.273123 -0.583184 0.020170
vertex -0.273235 -0.573203 0.010171
vertex -0.299845 -0.611344 0.009814
endloop
endfacet
facet normal -0.726628 0.686997 0.006851
outer loop
vertex -0.273123 -0.583184 0.020170
vertex -0.299845 -0.611344 0.009814
vertex -0.299733 -0.611325 0.019813
endloop
endfacet
facet normal 0.014221 0.003353 0.999893
outer loop
vertex -0.119762 -0.992258 0.019361
vertex -0.117074 -0.755590 0.018529
vertex -0.273123 -0.583184 0.020170
endloop
endfacet
facet normal -0.049711 0.034331 0.998173
outer loop
vertex -0.273123 -0.583184 0.020170
vertex -0.299733 -0.611325 0.019813
vertex -0.302186 -0.658126 0.021300
endloop
endfacet
facet normal -0.002944 -0.007412 0.999968
outer loop
vertex -0.302186 -0.658126 0.021300
vertex -0.092639 -1.158202 0.018211
vertex -0.119762 -0.992258 0.019361
endloop
endfacet
facet normal 0.022360 0.006405 0.999729
outer loop
vertex -0.273123 -0.583184 0.020170
vertex -0.302186 -0.658126 0.021300
vertex -0.119762 -0.992258 0.019361
endloop
endfacet
facet normal -0.922220 -0.386506 0.011092
outer loop
vertex -0.302186 -0.658126 0.021300
vertex -0.302298 -0.658145 0.011301
vertex -0.092751 -1.158221 0.008211
endloop
endfacet
facet normal -0.922220 -0.386506 0.011095
outer loop
vertex -0.302186 -0.658126 0.021300
vertex -0.092751 -1.158221 0.008211
vertex -0.092639 -1.158202 0.018211
endloop
endfacet
facet normal -0.922673 -0.385583 0.000093
outer loop
vertex -0.023122 -1.324091 0.018209
vertex -0.044686 -1.272489 0.018209
vertex -0.044686 -1.272491 0.008209
endloop
endfacet
facet normal -0.922674 -0.385582 0.000093
outer loop
vertex -0.023122 -1.324091 0.018209
vertex -0.044686 -1.272491 0.008209
vertex -0.023122 -1.324093 0.008209
endloop
endfacet
facet normal 0.000000 -0.005327 -0.999986
outer loop
vertex -0.117186 -0.745609 0.008530
vertex 0.000000 -0.601066 0.007760
vertex 0.117186 -0.745609 0.008530
endloop
endfacet
facet normal 0.000094 0.009434 -0.999955
outer loop
vertex 0.117186 -0.745609 0.008530
vertex 0.273235 -0.573203 0.010171
vertex 0.299845 -0.611344 0.009814
endloop
endfacet
facet normal 0.922220 -0.386506 0.011092
outer loop
vertex 0.302298 -0.658145 0.011301
vertex 0.302186 -0.658126 0.021300
vertex 0.092639 -1.158202 0.018211
endloop
endfacet
facet normal 0.029238 -0.030222 -0.999116
outer loop
vertex 0.117186 -0.745609 0.008530
vertex 0.299845 -0.611344 0.009814
vertex 0.302298 -0.658145 0.011301
endloop
endfacet
facet normal -0.000094 0.009434 -0.999955
outer loop
vertex -0.299845 -0.611344 0.009814
vertex -0.273235 -0.573203 0.010171
vertex -0.117186 -0.745609 0.008530
endloop
endfacet
facet normal 0.026794 -0.025042 -0.999327
outer loop
vertex 0.117186 -0.745609 0.008530
vertex 0.302298 -0.658145 0.011301
vertex 0.092639 -1.158202 0.018211
endloop
endfacet
facet normal -0.029238 -0.030222 -0.999115
outer loop
vertex -0.302298 -0.658145 0.011301
vertex -0.299845 -0.611344 0.009814
vertex -0.117186 -0.745609 0.008530
endloop
endfacet
facet normal 0.000000 -0.023458 -0.999725
outer loop
vertex -0.117186 -0.745609 0.008530
vertex 0.117186 -0.745609 0.008530
vertex 0.092639 -1.158202 0.018211
endloop
endfacet
facet normal 0.891358 0.453300 -0.000109
outer loop
vertex -0.117186 -0.745609 0.008530
vertex 0.092639 -1.158202 0.018211
vertex 0.092639 -1.158204 0.008211
endloop
endfacet
facet normal -0.015026 -0.000119 -0.999887
outer loop
vertex -0.092751 -1.158221 0.008211
vertex -0.302298 -0.658145 0.011301
vertex -0.117186 -0.745609 0.008530
endloop
endfacet
facet normal -0.916890 -0.383166 -0.111785
outer loop
vertex 0.000000 -1.379286 0.007739
vertex -0.023122 -1.324093 0.008209
vertex -0.044686 -1.272491 0.008209
endloop
endfacet
facet normal 0.002071 0.000894 -0.999997
outer loop
vertex -0.044686 -1.272491 0.008209
vertex -0.092751 -1.158221 0.008211
vertex -0.117186 -0.745609 0.008530
endloop
endfacet
facet normal -0.000814 0.000359 -1.000000
outer loop
vertex -0.117186 -0.745609 0.008530
vertex 0.092639 -1.158204 0.008211
vertex 0.044686 -1.272491 0.008209
endloop
endfacet
facet normal 0.916890 -0.383166 -0.111785
outer loop
vertex 0.044686 -1.272491 0.008209
vertex 0.023122 -1.324093 0.008209
vertex 0.000000 -1.379286 0.007739
endloop
endfacet
facet normal -0.013508 -0.001250 -0.999908
outer loop
vertex 0.000000 -1.379286 0.007739
vertex -0.044686 -1.272491 0.008209
vertex -0.117186 -0.745609 0.008530
endloop
endfacet
facet normal 0.005228 0.002215 -0.999984
outer loop
vertex -0.117186 -0.745609 0.008530
vertex 0.044686 -1.272491 0.008209
vertex 0.000000 -1.379286 0.007739
endloop
endfacet
facet normal -0.922332 -0.386397 0.000087
outer loop
vertex 0.000000 -1.379284 0.017739
vertex -0.023122 -1.324091 0.018209
vertex -0.023122 -1.324093 0.008209
endloop
endfacet
facet normal -0.922332 -0.386397 0.000100
outer loop
vertex 0.000000 -1.379284 0.017739
vertex -0.023122 -1.324093 0.008209
vertex 0.000000 -1.379286 0.007739
endloop
endfacet
facet normal 0.922120 -0.386904 0.000096
outer loop
vertex 0.092639 -1.158202 0.018211
vertex 0.044686 -1.272489 0.018209
vertex 0.044686 -1.272491 0.008209
endloop
endfacet
facet normal 0.922120 -0.386904 0.000090
outer loop
vertex 0.092639 -1.158202 0.018211
vertex 0.044686 -1.272491 0.008209
vertex 0.092639 -1.158204 0.008211
endloop
endfacet
facet normal 0.922673 -0.385583 0.000093
outer loop
vertex 0.044686 -1.272489 0.018209
vertex 0.023122 -1.324091 0.018209
vertex 0.023122 -1.324093 0.008209
endloop
endfacet
facet normal 0.922673 -0.385582 0.000093
outer loop
vertex 0.044686 -1.272489 0.018209
vertex 0.023122 -1.324093 0.008209
vertex 0.044686 -1.272491 0.008209
endloop
endfacet
facet normal -0.922063 -0.386880 0.011096
outer loop
vertex -0.044686 -1.272489 0.018209
vertex -0.092639 -1.158202 0.018211
vertex -0.092751 -1.158221 0.008211
endloop
endfacet
facet normal -0.921776 -0.387722 0.000090
outer loop
vertex -0.044686 -1.272489 0.018209
vertex -0.092751 -1.158221 0.008211
vertex -0.044686 -1.272491 0.008209
endloop
endfacet
facet normal 0.001717 -0.011074 0.999937
outer loop
vertex 0.299733 -0.611325 0.019813
vertex 0.273123 -0.583184 0.020170
vertex 0.117074 -0.755590 0.018529
endloop
endfacet
facet normal 0.002944 -0.007412 0.999968
outer loop
vertex 0.119762 -0.992258 0.019361
vertex 0.092639 -1.158202 0.018211
vertex 0.302186 -0.658126 0.021300
endloop
endfacet
facet normal -0.009717 0.003404 0.999947
outer loop
vertex 0.299733 -0.611325 0.019813
vertex 0.117074 -0.755590 0.018529
vertex 0.119762 -0.992258 0.019361
endloop
endfacet
facet normal -0.062666 0.028423 0.997630
outer loop
vertex 0.119762 -0.992258 0.019361
vertex 0.302186 -0.658126 0.021300
vertex 0.299733 -0.611325 0.019813
endloop
endfacet
facet normal 0.820140 0.572105 0.008115
outer loop
vertex 0.299733 -0.611325 0.019813
vertex 0.299845 -0.611344 0.009814
vertex 0.273235 -0.573203 0.010171
endloop
endfacet
facet normal 0.601812 0.561853 0.567576
outer loop
vertex 0.299733 -0.611325 0.019813
vertex 0.273235 -0.573203 0.010171
vertex 0.273123 -0.583184 0.020170
endloop
endfacet
facet normal -0.621940 0.557702 0.549690
outer loop
vertex 0.273123 -0.583184 0.020170
vertex 0.273235 -0.573203 0.010171
vertex 0.117186 -0.745609 0.008530
endloop
endfacet
facet normal -0.621938 0.557700 0.549694
outer loop
vertex 0.273123 -0.583184 0.020170
vertex 0.117186 -0.745609 0.008530
vertex 0.117074 -0.755590 0.018529
endloop
endfacet
facet normal 0.922223 -0.386659 0.000093
outer loop
vertex 0.092639 -1.158202 0.018211
vertex 0.092639 -1.158204 0.008211
vertex 0.302298 -0.658145 0.011301
endloop
endfacet
facet normal 0.922220 -0.386506 0.011093
outer loop
vertex 0.092639 -1.158202 0.018211
vertex 0.302298 -0.658145 0.011301
vertex 0.302186 -0.658126 0.021300
endloop
endfacet
facet normal 0.998549 0.052696 0.011114
outer loop
vertex 0.302186 -0.658126 0.021300
vertex 0.302298 -0.658145 0.011301
vertex 0.299845 -0.611344 0.009814
endloop
endfacet
facet normal 0.998549 0.052695 0.011113
outer loop
vertex 0.302186 -0.658126 0.021300
vertex 0.299845 -0.611344 0.009814
vertex 0.299733 -0.611325 0.019813
endloop
endfacet
facet normal 0.678108 0.516357 0.523016
outer loop
vertex 0.000000 -0.601063 0.017760
vertex 0.117074 -0.755590 0.018529
vertex 0.117186 -0.745609 0.008530
endloop
endfacet
facet normal 0.776786 0.629764 -0.000144
outer loop
vertex 0.000000 -0.601063 0.017760
vertex 0.117186 -0.745609 0.008530
vertex 0.000000 -0.601066 0.007760
endloop
endfacet
facet normal 0.173793 0.059887 -0.982960
outer loop
vertex -0.023229 -0.882744 0.073559
vertex 0.000204 -0.886937 0.077446
vertex -0.024637 -1.083284 0.061092
endloop
endfacet
facet normal 0.079937 0.061289 -0.994914
outer loop
vertex -0.023229 -0.882744 0.073559
vertex -0.024637 -1.083284 0.061092
vertex -0.060079 -1.076516 0.058661
endloop
endfacet
facet normal -0.904207 -0.154942 -0.397998
outer loop
vertex 0.040176 -0.861654 0.028569
vertex 0.023996 -0.882001 0.073249
vertex 0.013636 -0.832299 0.077437
endloop
endfacet
facet normal -0.905652 -0.178599 -0.384573
outer loop
vertex 0.040176 -0.861654 0.028569
vertex 0.013636 -0.832299 0.077437
vertex 0.029067 -0.809017 0.030285
endloop
endfacet
facet normal -0.157234 -0.065308 0.985400
outer loop
vertex 0.040176 -0.861654 0.028569
vertex 0.029067 -0.809017 0.030285
vertex 0.000000 -0.806604 0.025807
endloop
endfacet
facet normal -0.069314 -0.000531 0.997595
outer loop
vertex 0.040176 -0.861654 0.028569
vertex 0.000000 -0.806604 0.025807
vertex 0.000362 -0.861587 0.025803
endloop
endfacet
facet normal -0.868586 0.069017 0.490709
outer loop
vertex -0.043819 -1.073676 0.025788
vertex -0.024637 -1.083284 0.061092
vertex 0.000204 -0.886937 0.077446
endloop
endfacet
facet normal -0.974403 0.202975 0.096644
outer loop
vertex -0.043819 -1.073676 0.025788
vertex 0.000204 -0.886937 0.077446
vertex 0.000362 -0.861587 0.025803
endloop
endfacet
facet normal 0.333254 0.084253 -0.939065
outer loop
vertex -0.013636 -0.832299 0.077437
vertex 0.000000 -0.836261 0.081921
vertex 0.000204 -0.886937 0.077446
endloop
endfacet
facet normal 0.171024 0.043152 -0.984321
outer loop
vertex -0.013636 -0.832299 0.077437
vertex 0.000204 -0.886937 0.077446
vertex -0.023229 -0.882744 0.073559
endloop
endfacet
facet normal -0.087048 0.018062 0.996040
outer loop
vertex -0.078866 -1.066394 0.022593
vertex -0.043819 -1.073676 0.025788
vertex 0.000362 -0.861587 0.025803
endloop
endfacet
facet normal 0.073243 -0.043950 0.996345
outer loop
vertex -0.078866 -1.066394 0.022593
vertex 0.000362 -0.861587 0.025803
vertex -0.039353 -0.862180 0.028696
endloop
endfacet
facet normal 0.858605 -0.151491 -0.489743
outer loop
vertex -0.060079 -1.076516 0.058661
vertex -0.078866 -1.066394 0.022593
vertex -0.039353 -0.862180 0.028696
endloop
endfacet
facet normal 0.908813 -0.142687 -0.392046
outer loop
vertex -0.060079 -1.076516 0.058661
vertex -0.039353 -0.862180 0.028696
vertex -0.023229 -0.882744 0.073559
endloop
endfacet
facet normal 0.974637 0.199697 0.101015
outer loop
vertex 0.043819 -1.073676 0.025788
vertex 0.000362 -0.861587 0.025803
vertex 0.000204 -0.886937 0.077446
endloop
endfacet
facet normal 0.868894 0.067280 0.490404
outer loop
vertex 0.043819 -1.073676 0.025788
vertex 0.000204 -0.886937 0.077446
vertex 0.024637 -1.083284 0.061092
endloop
endfacet
facet normal -0.069322 -0.042193 0.996702
outer loop
vertex 0.078866 -1.066394 0.022593
vertex 0.040176 -0.861654 0.028569
vertex 0.000362 -0.861587 0.025803
endloop
endfacet
facet normal 0.087108 0.017777 0.996040
outer loop
vertex 0.078866 -1.066394 0.022593
vertex 0.000362 -0.861587 0.025803
vertex 0.043819 -1.073676 0.025788
endloop
endfacet
facet normal -0.865345 -0.124105 -0.485568
outer loop
vertex 0.078866 -1.066394 0.022593
vertex 0.060079 -1.076516 0.058661
vertex 0.023996 -0.882001 0.073249
endloop
endfacet
facet normal -0.902907 -0.158966 -0.399360
outer loop
vertex 0.078866 -1.066394 0.022593
vertex 0.023996 -0.882001 0.073249
vertex 0.040176 -0.861654 0.028569
endloop
endfacet
facet normal -0.185236 0.058655 -0.980942
outer loop
vertex 0.024637 -1.083284 0.061092
vertex 0.000204 -0.886937 0.077446
vertex 0.023996 -0.882001 0.073249
endloop
endfacet
facet normal -0.079668 0.059842 -0.995024
outer loop
vertex 0.024637 -1.083284 0.061092
vertex 0.023996 -0.882001 0.073249
vertex 0.060079 -1.076516 0.058661
endloop
endfacet
facet normal 0.861979 0.000000 -0.506945
outer loop
vertex 0.070805 -0.552525 0.120011
vertex 0.029309 -0.748607 0.049454
vertex 0.023168 -0.714161 0.039012
endloop
endfacet
facet normal 0.861973 0.000002 -0.506954
outer loop
vertex 0.023168 -0.714161 0.039012
vertex 0.018757 -0.671273 0.031512
vertex 0.017021 -0.652803 0.028560
endloop
endfacet
facet normal 0.863706 -0.002121 -0.503991
outer loop
vertex 0.017021 -0.652803 0.028560
vertex 0.009030 -0.608904 0.014680
vertex 0.070781 -0.481740 0.119971
endloop
endfacet
facet normal 0.861979 -0.000000 -0.506944
outer loop
vertex 0.070781 -0.481740 0.119971
vertex 0.070805 -0.552525 0.120011
vertex 0.023168 -0.714161 0.039012
endloop
endfacet
facet normal 0.861979 0.000000 -0.506944
outer loop
vertex 0.023168 -0.714161 0.039012
vertex 0.017021 -0.652803 0.028560
vertex 0.070781 -0.481740 0.119971
endloop
endfacet
facet normal -0.475672 -0.342723 -0.810109
outer loop
vertex 0.004717 -0.608901 0.017211
vertex 0.009030 -0.608904 0.014680
vertex 0.017021 -0.652803 0.028560
endloop
endfacet
facet normal -0.475675 -0.342724 -0.810107
outer loop
vertex 0.004717 -0.608901 0.017211
vertex 0.017021 -0.652803 0.028560
vertex 0.012709 -0.652801 0.031091
endloop
endfacet
facet normal -0.364827 0.692491 -0.622381
outer loop
vertex 0.066469 -0.481737 0.122502
vertex 0.070781 -0.481740 0.119971
vertex 0.009030 -0.608904 0.014680
endloop
endfacet
facet normal -0.364831 0.692490 -0.622379
outer loop
vertex 0.066469 -0.481737 0.122502
vertex 0.009030 -0.608904 0.014680
vertex 0.004717 -0.608901 0.017211
endloop
endfacet
facet normal -0.497766 -0.182324 -0.847931
outer loop
vertex 0.012709 -0.652801 0.031091
vertex 0.017021 -0.652803 0.028560
vertex 0.018757 -0.671273 0.031512
endloop
endfacet
facet normal -0.497769 -0.182325 -0.847929
outer loop
vertex 0.012709 -0.652801 0.031091
vertex 0.018757 -0.671273 0.031512
vertex 0.014445 -0.671270 0.034043
endloop
endfacet
facet normal 0.506166 0.000661 0.862436
outer loop
vertex 0.066493 -0.552522 0.122542
vertex 0.070805 -0.552525 0.120011
vertex 0.070781 -0.481740 0.119971
endloop
endfacet
facet normal 0.506163 0.000661 0.862437
outer loop
vertex 0.066493 -0.552522 0.122542
vertex 0.070781 -0.481740 0.119971
vertex 0.066469 -0.481737 0.122502
endloop
endfacet
facet normal -0.568571 -0.329830 -0.753618
outer loop
vertex 0.017816 -0.706337 0.039625
vertex 0.023168 -0.714161 0.039012
vertex 0.029309 -0.748607 0.049454
endloop
endfacet
facet normal -0.479641 -0.320364 -0.816891
outer loop
vertex 0.017816 -0.706337 0.039625
vertex 0.029309 -0.748607 0.049454
vertex 0.024997 -0.748604 0.051985
endloop
endfacet
facet normal -0.496155 -0.198817 -0.845164
outer loop
vertex 0.014445 -0.671270 0.034043
vertex 0.018757 -0.671273 0.031512
vertex 0.023168 -0.714161 0.039012
endloop
endfacet
facet normal -0.368518 -0.180592 -0.911911
outer loop
vertex 0.014445 -0.671270 0.034043
vertex 0.023168 -0.714161 0.039012
vertex 0.017816 -0.706337 0.039625
endloop
endfacet
facet normal -0.861979 0.000000 -0.506944
outer loop
vertex -0.023166 -0.714159 0.039008
vertex -0.029307 -0.748604 0.049450
vertex -0.070803 -0.552522 0.120007
endloop
endfacet
facet normal -0.861979 -0.000000 -0.506944
outer loop
vertex -0.070803 -0.552522 0.120007
vertex -0.070779 -0.481737 0.119967
vertex -0.009087 -0.607570 0.015070
endloop
endfacet
facet normal -0.861978 0.000000 -0.506946
outer loop
vertex -0.017019 -0.652801 0.028556
vertex -0.018755 -0.671270 0.031508
vertex -0.023166 -0.714159 0.039008
endloop
endfacet
facet normal -0.861979 0.000000 -0.506944
outer loop
vertex -0.070803 -0.552522 0.120007
vertex -0.009087 -0.607570 0.015070
vertex -0.017019 -0.652801 0.028556
endloop
endfacet
facet normal -0.861979 -0.000000 -0.506944
outer loop
vertex -0.070803 -0.552522 0.120007
vertex -0.017019 -0.652801 0.028556
vertex -0.023166 -0.714159 0.039008
endloop
endfacet
facet normal -0.467816 -0.385232 0.795452
outer loop
vertex -0.066493 -0.552522 0.122542
vertex -0.070803 -0.552522 0.120007
vertex -0.029307 -0.748604 0.049450
endloop
endfacet
facet normal -0.559053 -0.380600 0.736616
outer loop
vertex -0.066493 -0.552522 0.122542
vertex -0.029307 -0.748604 0.049450
vertex -0.025132 -0.749386 0.052215
endloop
endfacet
facet normal 0.479091 -0.326902 -0.814620
outer loop
vertex -0.012709 -0.652801 0.031091
vertex -0.017019 -0.652801 0.028556
vertex -0.009087 -0.607570 0.015070
endloop
endfacet
facet normal 0.479091 -0.326903 -0.814620
outer loop
vertex -0.012709 -0.652801 0.031091
vertex -0.009087 -0.607570 0.015070
vertex -0.004777 -0.607570 0.017605
endloop
endfacet
facet normal 0.476862 -0.331771 -0.813960
outer loop
vertex -0.025132 -0.749386 0.052215
vertex -0.029307 -0.748604 0.049450
vertex -0.023166 -0.714159 0.039008
endloop
endfacet
facet normal 0.555029 -0.318994 -0.768236
outer loop
vertex -0.025132 -0.749386 0.052215
vertex -0.023166 -0.714159 0.039008
vertex -0.017816 -0.706337 0.039625
endloop
endfacet
facet normal 0.392328 -0.197446 -0.898384
outer loop
vertex -0.017816 -0.706337 0.039625
vertex -0.023166 -0.714159 0.039008
vertex -0.018755 -0.671270 0.031508
endloop
endfacet
facet normal 0.498403 -0.182817 -0.847451
outer loop
vertex -0.017816 -0.706337 0.039625
vertex -0.018755 -0.671270 0.031508
vertex -0.014445 -0.671270 0.034043
endloop
endfacet
facet normal 0.498446 -0.182324 -0.847531
outer loop
vertex -0.014445 -0.671270 0.034043
vertex -0.018755 -0.671270 0.031508
vertex -0.017019 -0.652801 0.028556
endloop
endfacet
facet normal 0.498446 -0.182325 -0.847531
outer loop
vertex -0.014445 -0.671270 0.034043
vertex -0.017019 -0.652801 0.028556
vertex -0.012709 -0.652801 0.031091
endloop
endfacet
facet normal 0.364410 0.695178 -0.619623
outer loop
vertex -0.004777 -0.607570 0.017605
vertex -0.009087 -0.607570 0.015070
vertex -0.070779 -0.481737 0.119967
endloop
endfacet
facet normal 0.364407 0.695183 -0.619619
outer loop
vertex -0.004777 -0.607570 0.017605
vertex -0.070779 -0.481737 0.119967
vertex -0.066469 -0.481737 0.122502
endloop
endfacet
facet normal -0.288076 0.177492 0.941015
outer loop
vertex -0.012709 -0.652801 0.031091
vertex -0.117074 -0.755590 0.018529
vertex -0.017816 -0.706337 0.039625
endloop
endfacet
facet normal -0.863706 0.002121 0.503991
outer loop
vertex 0.066469 -0.481737 0.122502
vertex 0.004717 -0.608901 0.017211
vertex 0.012709 -0.652801 0.031091
endloop
endfacet
facet normal 0.287909 0.177511 0.941062
outer loop
vertex 0.012709 -0.652801 0.031091
vertex 0.014445 -0.671270 0.034043
vertex 0.017816 -0.706337 0.039625
endloop
endfacet
facet normal -0.863182 0.000993 0.504892
outer loop
vertex 0.017816 -0.706337 0.039625
vertex 0.024997 -0.748604 0.051985
vertex 0.066493 -0.552522 0.122542
endloop
endfacet
facet normal -0.861979 0.000000 0.506944
outer loop
vertex 0.066493 -0.552522 0.122542
vertex 0.066469 -0.481737 0.122502
vertex 0.012709 -0.652801 0.031091
endloop
endfacet
facet normal -0.861399 -0.001207 0.507927
outer loop
vertex 0.012709 -0.652801 0.031091
vertex 0.017816 -0.706337 0.039625
vertex 0.066493 -0.552522 0.122542
endloop
endfacet
facet normal 0.861979 0.000000 0.506944
outer loop
vertex -0.025132 -0.749386 0.052215
vertex -0.004777 -0.607570 0.017605
vertex -0.066469 -0.481737 0.122502
endloop
endfacet
facet normal 0.861979 0.000000 0.506943
outer loop
vertex -0.025132 -0.749386 0.052215
vertex -0.066469 -0.481737 0.122502
vertex -0.066493 -0.552522 0.122542
endloop
endfacet
endsolid Exported from Blender-3.6.5
